# Created by FreeCAD <https://www.freecad.org>
v 0.000000 0.000000 0.000000
v 22.960262 0.000000 0.000000
v 0.000000 0.000000 10.000000
v 22.960262 0.000000 10.000000
v 22.960262 14.335800 0.000000
v 22.960262 14.335800 10.000000
v 0.000000 14.335800 0.000000
v 0.000000 14.335800 10.000000
v 0.000000 0.000000 0.000000
v 22.960262 0.000000 0.000000
v 0.000000 0.000000 10.000000
v 22.960262 0.000000 10.000000
v 22.960262 14.335800 0.000000
v 22.960262 14.335800 10.000000
v 0.000000 14.335800 0.000000
v 0.000000 14.335800 10.000000
vn 0.000000 -1.000000 0.000000
vn 0.000000 -1.000000 0.000000
vn 1.000000 0.000000 0.000000
vn 1.000000 -0.000000 0.000000
vn 0.000000 1.000000 -0.000000
vn 0.000000 1.000000 0.000000
vn -1.000000 0.000000 0.000000
vn -1.000000 -0.000000 0.000000
vn 0.000000 0.000000 -1.000000
vn 0.000000 0.000000 -1.000000
vn 0.000000 0.000000 1.000000
vn 0.000000 0.000000 1.000000
vn 0.000000 -1.000000 0.000000
vn 0.000000 -1.000000 0.000000
vn 1.000000 0.000000 0.000000
vn 1.000000 -0.000000 0.000000
vn 0.000000 1.000000 -0.000000
vn 0.000000 1.000000 0.000000
vn -1.000000 0.000000 0.000000
vn -1.000000 -0.000000 0.000000
vn 0.000000 0.000000 -1.000000
vn 0.000000 0.000000 -1.000000
vn 0.000000 0.000000 1.000000
vn 0.000000 0.000000 1.000000
g MeshExport
f 1//1 2//1 3//1
f 3//2 2//2 4//2
f 2//3 5//3 4//3
f 4//4 5//4 6//4
f 5//5 7//5 6//5
f 6//6 7//6 8//6
f 7//7 1//7 8//7
f 8//8 1//8 3//8
f 1//9 5//9 2//9
f 7//10 5//10 1//10
f 6//11 3//11 4//11
f 6//12 8//12 3//12
g MeshExport001
g MeshExport002
g MeshExport003
g MeshExport004
g MeshExport005
g MeshExport006
g MeshExport007
g MeshExport008
f 9//13 10//13 11//13
f 11//14 10//14 12//14
f 10//15 13//15 12//15
f 12//16 13//16 14//16
f 13//17 15//17 14//17
f 14//18 15//18 16//18
f 15//19 9//19 16//19
f 16//20 9//20 11//20
f 9//21 13//21 10//21
f 15//22 13//22 9//22
f 14//23 11//23 12//23
f 14//24 16//24 11//24
